name rise36.2859peak64.2979fall75.1499.mot
datacolumns 19
datarows 30
range 19.45659000000000 19.50493800000000
endheader
time	ground_force1_vx	ground_force1_vy	ground_force1_vz	ground_force1_px	ground_force1_py	ground_force1_pz	ground_force2_vx	ground_force2_vy	ground_force2_vz	ground_force2_px	ground_force2_py	ground_force2_pz	ground_torque1_x	ground_torque1_y	ground_torque1_z	ground_torque2_x	ground_torque2_y	ground_torque2_z	
19.45659000000000	47.52062400000000	664.10262299999999	50.34302900000000	0.40842800000000	0.00000000000000	0.09233100000000	-0.71963100000000	39.75683800000000	5.05949400000000	0.13300300000000	0.00000000000000	-0.07870400000000	0.00000000000000	32.05506400000000	0.00000000000000	0.00000000000000	1.12612300000000	0.00000000000000	
19.45826300000000	47.07636300000000	667.09179700000004	50.47186200000000	0.40639900000000	0.00000000000000	0.09240300000000	-0.24559700000000	33.17592000000000	4.38081800000000	0.11924900000000	0.00000000000000	-0.07799700000000	0.00000000000000	32.04996000000000	0.00000000000000	0.00000000000000	0.99211200000000	0.00000000000000	
19.45992900000000	46.63919000000000	670.11235799999997	50.61343200000000	0.40439700000000	0.00000000000000	0.09247700000000	0.10981300000000	26.88525300000000	3.68548800000000	0.10296800000000	0.00000000000000	-0.07730600000000	0.00000000000000	32.05405800000000	0.00000000000000	0.00000000000000	0.83896700000000	0.00000000000000	
19.46158800000000	46.20935900000000	673.16228899999999	50.76780500000000	0.40242500000000	0.00000000000000	0.09255300000000	0.35587500000000	21.00335900000000	2.99520500000000	0.00000000000000	0.00000000000000	0.00000000000000	0.00000000000000	32.06758500000000	0.00000000000000	0.00000000000000	0.39997800000000	0.00000000000000	
19.46325700000000	45.78705000000000	676.23922500000003	50.93493100000000	0.40048800000000	0.00000000000000	0.09262900000000	0.50501400000000	15.64103100000000	2.33167500000000	0.00000000000000	0.00000000000000	0.00000000000000	0.00000000000000	32.09068100000000	0.00000000000000	0.00000000000000	0.33996200000000	0.00000000000000	
19.46492500000000	45.37237700000000	679.34047199999998	51.11464900000000	0.39858800000000	0.00000000000000	0.09270700000000	0.57199400000000	10.89160100000000	1.71494700000000	0.00000000000000	0.00000000000000	0.00000000000000	0.00000000000000	32.12340700000000	0.00000000000000	0.00000000000000	0.27518100000000	0.00000000000000	
19.46659500000000	44.96539100000000	682.46302700000001	51.30669600000000	0.39672900000000	0.00000000000000	0.09278500000000	0.57295600000000	6.82291300000000	1.16192400000000	0.00000000000000	0.00000000000000	0.00000000000000	0.00000000000000	32.16574200000000	0.00000000000000	0.00000000000000	0.20967300000000	0.00000000000000	
19.46826200000000	44.56607900000000	685.60359000000005	51.51070300000000	0.39491400000000	0.00000000000000	0.09286400000000	0.52440400000000	3.47203300000000	0.68524300000000	0.00000000000000	0.00000000000000	0.00000000000000	0.00000000000000	32.21759200000000	0.00000000000000	0.00000000000000	0.14701100000000	0.00000000000000	
19.46992400000000	44.17437000000000	688.75859200000002	51.72620900000000	0.39314600000000	0.00000000000000	0.09294200000000	0.00000000000000	0.00000000000000	0.00000000000000	0.00000000000000	0.00000000000000	0.00000000000000	0.00000000000000	32.27879200000000	0.00000000000000	0.00000000000000	0.00000000000000	0.00000000000000	
19.47159700000000	43.79014000000000	691.92420800000002	51.95266200000000	0.39142700000000	0.00000000000000	0.09302100000000	0.00000000000000	0.00000000000000	0.00000000000000	0.00000000000000	0.00000000000000	0.00000000000000	0.00000000000000	32.34911000000000	0.00000000000000	0.00000000000000	0.00000000000000	0.00000000000000	
19.47326300000000	43.41321000000000	695.09638600000005	52.18942400000000	0.38975900000000	0.00000000000000	0.09309900000000	0.00000000000000	0.00000000000000	0.00000000000000	0.00000000000000	0.00000000000000	0.00000000000000	0.00000000000000	32.42825000000000	0.00000000000000	0.00000000000000	0.00000000000000	0.00000000000000	
19.47492700000000	43.04335500000000	698.27086399999996	52.43578100000000	0.38814600000000	0.00000000000000	0.09317600000000	0.00000000000000	0.00000000000000	0.00000000000000	0.00000000000000	0.00000000000000	0.00000000000000	0.00000000000000	32.51586100000000	0.00000000000000	0.00000000000000	0.00000000000000	0.00000000000000	
19.47659100000000	42.68030600000000	701.44319700000005	52.69094500000000	0.38658700000000	0.00000000000000	0.09325300000000	0.00000000000000	0.00000000000000	0.00000000000000	0.00000000000000	0.00000000000000	0.00000000000000	0.00000000000000	32.61153500000000	0.00000000000000	0.00000000000000	0.00000000000000	0.00000000000000	
19.47826200000000	42.32375400000000	704.60877900000003	52.95406600000000	0.38508600000000	0.00000000000000	0.09332700000000	0.00000000000000	0.00000000000000	0.00000000000000	0.00000000000000	0.00000000000000	0.00000000000000	0.00000000000000	32.71481600000000	0.00000000000000	0.00000000000000	0.00000000000000	0.00000000000000	
19.47992200000000	41.97335200000000	707.76286700000003	53.22423400000000	0.38364200000000	0.00000000000000	0.09340100000000	0.00000000000000	0.00000000000000	0.00000000000000	0.00000000000000	0.00000000000000	0.00000000000000	0.00000000000000	32.82520300000000	0.00000000000000	0.00000000000000	0.00000000000000	0.00000000000000	
19.48159700000000	41.62872200000000	710.90060700000004	53.50048800000000	0.38225900000000	0.00000000000000	0.09347200000000	0.00000000000000	0.00000000000000	0.00000000000000	0.00000000000000	0.00000000000000	0.00000000000000	0.00000000000000	32.94215500000000	0.00000000000000	0.00000000000000	0.00000000000000	0.00000000000000	
19.48326300000000	41.28945700000000	714.01705500000003	53.78182300000000	0.38093500000000	0.00000000000000	0.09354200000000	0.00000000000000	0.00000000000000	0.00000000000000	0.00000000000000	0.00000000000000	0.00000000000000	0.00000000000000	33.06509300000000	0.00000000000000	0.00000000000000	0.00000000000000	0.00000000000000	
19.48492400000000	40.95512600000000	717.10720800000001	54.06719800000000	0.37967200000000	0.00000000000000	0.09360900000000	0.00000000000000	0.00000000000000	0.00000000000000	0.00000000000000	0.00000000000000	0.00000000000000	0.00000000000000	33.19340900000000	0.00000000000000	0.00000000000000	0.00000000000000	0.00000000000000	
19.48659600000000	40.62527700000000	720.16602000000000	54.35554200000000	0.37847100000000	0.00000000000000	0.09367400000000	0.00000000000000	0.00000000000000	0.00000000000000	0.00000000000000	0.00000000000000	0.00000000000000	0.00000000000000	33.32646500000000	0.00000000000000	0.00000000000000	0.00000000000000	0.00000000000000	
19.48825600000000	40.29944300000000	723.18843400000003	54.64575900000000	0.37733100000000	0.00000000000000	0.09373600000000	0.00000000000000	0.00000000000000	0.00000000000000	0.00000000000000	0.00000000000000	0.00000000000000	0.00000000000000	33.46360100000000	0.00000000000000	0.00000000000000	0.00000000000000	0.00000000000000	
19.48992200000000	39.97714200000000	726.16940299999999	54.93673900000000	0.37625100000000	0.00000000000000	0.09379500000000	0.00000000000000	0.00000000000000	0.00000000000000	0.00000000000000	0.00000000000000	0.00000000000000	0.00000000000000	33.60413800000000	0.00000000000000	0.00000000000000	0.00000000000000	0.00000000000000	
19.49159700000000	39.65788500000000	729.10391200000004	55.22736200000000	0.37523300000000	0.00000000000000	0.09385200000000	0.00000000000000	0.00000000000000	0.00000000000000	0.00000000000000	0.00000000000000	0.00000000000000	0.00000000000000	33.74738000000000	0.00000000000000	0.00000000000000	0.00000000000000	0.00000000000000	
19.49325600000000	39.34117900000000	731.98700499999995	55.51650600000000	0.37427400000000	0.00000000000000	0.09390500000000	0.00000000000000	0.00000000000000	0.00000000000000	0.00000000000000	0.00000000000000	0.00000000000000	0.00000000000000	33.89262200000000	0.00000000000000	0.00000000000000	0.00000000000000	0.00000000000000	
19.49492400000000	39.02652700000000	734.81380300000001	55.80305100000000	0.37337500000000	0.00000000000000	0.09395400000000	0.00000000000000	0.00000000000000	0.00000000000000	0.00000000000000	0.00000000000000	0.00000000000000	0.00000000000000	34.03914900000000	0.00000000000000	0.00000000000000	0.00000000000000	0.00000000000000	
19.49658900000000	38.71343800000000	737.57952899999998	56.08588700000000	0.37253400000000	0.00000000000000	0.09400000000000	0.00000000000000	0.00000000000000	0.00000000000000	0.00000000000000	0.00000000000000	0.00000000000000	0.00000000000000	34.18624500000000	0.00000000000000	0.00000000000000	0.00000000000000	0.00000000000000	
19.49825500000000	38.40142200000000	740.27952900000003	56.36392200000000	0.37175100000000	0.00000000000000	0.09404300000000	0.00000000000000	0.00000000000000	0.00000000000000	0.00000000000000	0.00000000000000	0.00000000000000	0.00000000000000	34.33319200000000	0.00000000000000	0.00000000000000	0.00000000000000	0.00000000000000	
19.49992600000000	38.09000100000000	742.90928899999994	56.63608200000000	0.37102300000000	0.00000000000000	0.09408200000000	0.00000000000000	0.00000000000000	0.00000000000000	0.00000000000000	0.00000000000000	0.00000000000000	0.00000000000000	34.47927300000000	0.00000000000000	0.00000000000000	0.00000000000000	0.00000000000000	
19.50159100000000	37.77870900000000	745.46445800000004	56.90132100000000	0.37034900000000	0.00000000000000	0.09411700000000	0.00000000000000	0.00000000000000	0.00000000000000	0.00000000000000	0.00000000000000	0.00000000000000	0.00000000000000	34.62378000000000	0.00000000000000	0.00000000000000	0.00000000000000	0.00000000000000	
19.50325800000000	37.46709400000000	747.94086400000003	57.15862400000000	0.36972800000000	0.00000000000000	0.09414800000000	0.00000000000000	0.00000000000000	0.00000000000000	0.00000000000000	0.00000000000000	0.00000000000000	0.00000000000000	34.76601300000000	0.00000000000000	0.00000000000000	0.00000000000000	0.00000000000000	
19.50493800000000	37.15472000000000	750.33452899999997	57.40701500000000	0.36915800000000	0.00000000000000	0.09417600000000	0.00000000000000	0.00000000000000	0.00000000000000	0.00000000000000	0.00000000000000	0.00000000000000	0.00000000000000	34.90528500000000	0.00000000000000	0.00000000000000	0.00000000000000	0.00000000000000	
